<svg xmlns="http://www.w3.org/2000/svg" width="126" height="100" fill="none"><path fill="#3D3D3D" d="M98.5 22.5C98.5 42.184 80.65 50 71 50c22 0 27.5 17.368 27.5 27.5 0-22 18.333-27.5 27.5-27.5-21.614 0-27.5-18.333-27.5-27.5Z"/><path fill="#3D3D3D" d="M78.3 26.434c-3.511-3.917-7.669-6.993-12.473-9.231-4.804-2.238-9.655-3.357-14.551-3.357-4.805 0-9.332.933-13.582 2.797-4.157 1.772-7.853 4.29-11.086 7.553-3.141 3.263-5.59 7.086-7.345 11.468-1.755 4.29-2.633 8.951-2.633 13.986 0 4.942.878 9.604 2.633 13.986 1.755 4.29 4.204 8.066 7.345 11.329a36.533 36.533 0 0 0 11.086 7.692c4.25 1.865 8.777 2.797 13.582 2.797 4.896 0 9.7-1.025 14.412-3.076A43.59 43.59 0 0 0 78.3 73.706l9.7 10.21c-3.234 3.264-6.93 6.107-11.087 8.532a54.599 54.599 0 0 1-12.888 5.594A47.854 47.854 0 0 1 50.445 100c-7.115 0-13.72-1.259-19.818-3.776-6.098-2.61-11.456-6.2-16.076-10.77-4.527-4.568-8.084-9.883-10.67-15.944C1.292 63.357 0 56.783 0 49.79c0-6.993 1.293-13.473 3.88-19.44 2.587-6.061 6.19-11.376 10.81-15.944a51.082 51.082 0 0 1 16.214-10.63C37.094 1.26 43.792 0 50.998 0c4.62 0 9.147.606 13.581 1.818a55.304 55.304 0 0 1 12.612 5.175 48.315 48.315 0 0 1 10.67 8.112L78.3 26.434Z"/></svg>